<mxfile host="app.diagrams.net" agent="Mozilla/5.0 (X11; Linux x86_64; rv:131.0) Gecko/20100101 Firefox/131.0" version="24.8.6">
  <diagram name="Page-1" id="58cdce13-f638-feb5-8d6f-7d28b1aa9fa0">
    <mxGraphModel dx="2416" dy="1442" grid="1" gridSize="10" guides="1" tooltips="1" connect="1" arrows="1" fold="1" page="1" pageScale="1" pageWidth="1100" pageHeight="850" background="none" math="0" shadow="0">
      <root>
        <mxCell id="0" />
        <mxCell id="1" parent="0" />
        <mxCell id="9FjvzClEqSrkpXA8VN8C-158" value="" style="group" vertex="1" connectable="0" parent="1">
          <mxGeometry x="910" y="60" width="1240" height="560" as="geometry" />
        </mxCell>
        <mxCell id="9FjvzClEqSrkpXA8VN8C-49" value="ParseFunctionDeclaration()" style="shape=umlFrame;whiteSpace=wrap;html=1;rounded=1;shadow=0;comic=0;labelBackgroundColor=none;strokeWidth=1;fontFamily=Verdana;fontSize=12;align=center;movable=1;resizable=1;rotatable=1;deletable=1;editable=1;locked=0;connectable=1;width=200;height=40;" vertex="1" parent="9FjvzClEqSrkpXA8VN8C-158">
          <mxGeometry width="1240" height="560" as="geometry" />
        </mxCell>
        <mxCell id="9FjvzClEqSrkpXA8VN8C-50" style="edgeStyle=orthogonalEdgeStyle;rounded=0;orthogonalLoop=1;jettySize=auto;html=1;entryX=0;entryY=0.5;entryDx=0;entryDy=0;" edge="1" source="9FjvzClEqSrkpXA8VN8C-52" target="9FjvzClEqSrkpXA8VN8C-59" parent="9FjvzClEqSrkpXA8VN8C-158">
          <mxGeometry relative="1" as="geometry" />
        </mxCell>
        <mxCell id="9FjvzClEqSrkpXA8VN8C-51" value="function_location:=next_token.loc" style="edgeLabel;html=1;align=center;verticalAlign=middle;resizable=0;points=[];" vertex="1" connectable="0" parent="9FjvzClEqSrkpXA8VN8C-50">
          <mxGeometry x="-0.3526" y="-2" relative="1" as="geometry">
            <mxPoint x="32" y="-2" as="offset" />
          </mxGeometry>
        </mxCell>
        <mxCell id="9FjvzClEqSrkpXA8VN8C-52" value="" style="ellipse;html=1;shape=startState;fillColor=#000000;strokeColor=#ff0000;rounded=1;shadow=0;comic=0;labelBackgroundColor=none;fontFamily=Verdana;fontSize=12;fontColor=#000000;align=center;direction=south;" vertex="1" parent="9FjvzClEqSrkpXA8VN8C-158">
          <mxGeometry x="30" y="122" width="30" height="30" as="geometry" />
        </mxCell>
        <mxCell id="9FjvzClEqSrkpXA8VN8C-58" value="&lt;div&gt;&lt;br&gt;&lt;/div&gt;&lt;div&gt;variable: function_location, function_identifier&lt;br&gt;&lt;/div&gt;" style="text;html=1;align=center;verticalAlign=middle;resizable=0;points=[];autosize=1;strokeColor=none;fillColor=none;" vertex="1" parent="9FjvzClEqSrkpXA8VN8C-158">
          <mxGeometry x="40" y="40" width="260" height="40" as="geometry" />
        </mxCell>
        <mxCell id="9FjvzClEqSrkpXA8VN8C-61" style="edgeStyle=orthogonalEdgeStyle;rounded=0;orthogonalLoop=1;jettySize=auto;html=1;entryX=0.5;entryY=0;entryDx=0;entryDy=0;" edge="1" parent="9FjvzClEqSrkpXA8VN8C-158" source="9FjvzClEqSrkpXA8VN8C-59" target="9FjvzClEqSrkpXA8VN8C-63">
          <mxGeometry relative="1" as="geometry">
            <mxPoint x="310" y="270" as="targetPoint" />
          </mxGeometry>
        </mxCell>
        <mxCell id="9FjvzClEqSrkpXA8VN8C-62" value="next_token.type != Identifier" style="edgeLabel;html=1;align=center;verticalAlign=middle;resizable=0;points=[];" vertex="1" connectable="0" parent="9FjvzClEqSrkpXA8VN8C-61">
          <mxGeometry x="-0.009" y="1" relative="1" as="geometry">
            <mxPoint as="offset" />
          </mxGeometry>
        </mxCell>
        <mxCell id="9FjvzClEqSrkpXA8VN8C-71" style="edgeStyle=orthogonalEdgeStyle;rounded=0;orthogonalLoop=1;jettySize=auto;html=1;exitX=1;exitY=0.5;exitDx=0;exitDy=0;entryX=0;entryY=0.5;entryDx=0;entryDy=0;" edge="1" parent="9FjvzClEqSrkpXA8VN8C-158" source="9FjvzClEqSrkpXA8VN8C-59" target="9FjvzClEqSrkpXA8VN8C-70">
          <mxGeometry relative="1" as="geometry" />
        </mxCell>
        <mxCell id="9FjvzClEqSrkpXA8VN8C-73" value="&lt;div&gt;next_token.type == Identifier&lt;/div&gt;&lt;div&gt;/&lt;br&gt;&lt;/div&gt;&lt;div&gt;function_identifier:=next_token.value&lt;/div&gt;" style="edgeLabel;html=1;align=center;verticalAlign=middle;resizable=0;points=[];" vertex="1" connectable="0" parent="9FjvzClEqSrkpXA8VN8C-71">
          <mxGeometry x="-0.0546" y="-1" relative="1" as="geometry">
            <mxPoint as="offset" />
          </mxGeometry>
        </mxCell>
        <mxCell id="9FjvzClEqSrkpXA8VN8C-59" value="&lt;div&gt;PopToken&lt;/div&gt;&quot;func&quot;" style="shape=ellipse;html=1;dashed=0;whiteSpace=wrap;aspect=fixed;perimeter=ellipsePerimeter;" vertex="1" parent="9FjvzClEqSrkpXA8VN8C-158">
          <mxGeometry x="270" y="97" width="80" height="80" as="geometry" />
        </mxCell>
        <mxCell id="9FjvzClEqSrkpXA8VN8C-60" value="" style="ellipse;html=1;shape=endState;fillColor=#000000;strokeColor=#ff0000;" vertex="1" parent="9FjvzClEqSrkpXA8VN8C-158">
          <mxGeometry x="970" y="425" width="30" height="30" as="geometry" />
        </mxCell>
        <mxCell id="9FjvzClEqSrkpXA8VN8C-64" value="" style="edgeStyle=orthogonalEdgeStyle;rounded=1;orthogonalLoop=1;jettySize=auto;html=1;curved=0;entryX=0;entryY=0.5;entryDx=0;entryDy=0;" edge="1" parent="9FjvzClEqSrkpXA8VN8C-158" source="9FjvzClEqSrkpXA8VN8C-63" target="9FjvzClEqSrkpXA8VN8C-60">
          <mxGeometry relative="1" as="geometry">
            <Array as="points">
              <mxPoint x="310" y="440" />
            </Array>
          </mxGeometry>
        </mxCell>
        <mxCell id="9FjvzClEqSrkpXA8VN8C-63" value="report" style="shape=ellipse;html=1;dashed=0;whiteSpace=wrap;aspect=fixed;perimeter=ellipsePerimeter;" vertex="1" parent="9FjvzClEqSrkpXA8VN8C-158">
          <mxGeometry x="270" y="252" width="80" height="80" as="geometry" />
        </mxCell>
        <mxCell id="9FjvzClEqSrkpXA8VN8C-80" style="edgeStyle=orthogonalEdgeStyle;rounded=0;orthogonalLoop=1;jettySize=auto;html=1;entryX=0;entryY=0.5;entryDx=0;entryDy=0;" edge="1" parent="9FjvzClEqSrkpXA8VN8C-158" source="9FjvzClEqSrkpXA8VN8C-70" target="9FjvzClEqSrkpXA8VN8C-79">
          <mxGeometry relative="1" as="geometry" />
        </mxCell>
        <mxCell id="9FjvzClEqSrkpXA8VN8C-81" value="&lt;div&gt;next_token.type == LeftParenthesis&lt;/div&gt;" style="edgeLabel;html=1;align=center;verticalAlign=middle;resizable=0;points=[];" vertex="1" connectable="0" parent="9FjvzClEqSrkpXA8VN8C-80">
          <mxGeometry x="0.02" y="2" relative="1" as="geometry">
            <mxPoint x="-7" y="-3" as="offset" />
          </mxGeometry>
        </mxCell>
        <mxCell id="9FjvzClEqSrkpXA8VN8C-82" style="edgeStyle=orthogonalEdgeStyle;rounded=1;orthogonalLoop=1;jettySize=auto;html=1;exitX=0.5;exitY=1;exitDx=0;exitDy=0;entryX=1;entryY=0;entryDx=0;entryDy=0;curved=0;" edge="1" parent="9FjvzClEqSrkpXA8VN8C-158" source="9FjvzClEqSrkpXA8VN8C-70" target="9FjvzClEqSrkpXA8VN8C-63">
          <mxGeometry relative="1" as="geometry">
            <Array as="points">
              <mxPoint x="590" y="264" />
            </Array>
          </mxGeometry>
        </mxCell>
        <mxCell id="9FjvzClEqSrkpXA8VN8C-84" value="next_token.type != LeftParenthesis" style="edgeLabel;html=1;align=center;verticalAlign=middle;resizable=0;points=[];" vertex="1" connectable="0" parent="9FjvzClEqSrkpXA8VN8C-82">
          <mxGeometry x="0.0656" y="-1" relative="1" as="geometry">
            <mxPoint x="-34" y="1" as="offset" />
          </mxGeometry>
        </mxCell>
        <mxCell id="9FjvzClEqSrkpXA8VN8C-70" value="&lt;div&gt;PopToken&lt;/div&gt;::Identifier" style="shape=ellipse;html=1;dashed=0;whiteSpace=wrap;aspect=fixed;perimeter=ellipsePerimeter;" vertex="1" parent="9FjvzClEqSrkpXA8VN8C-158">
          <mxGeometry x="550" y="95" width="80" height="80" as="geometry" />
        </mxCell>
        <mxCell id="9FjvzClEqSrkpXA8VN8C-88" style="edgeStyle=orthogonalEdgeStyle;rounded=1;orthogonalLoop=1;jettySize=auto;html=1;exitX=0.5;exitY=1;exitDx=0;exitDy=0;entryX=1;entryY=0.5;entryDx=0;entryDy=0;curved=0;" edge="1" parent="9FjvzClEqSrkpXA8VN8C-158" source="9FjvzClEqSrkpXA8VN8C-79" target="9FjvzClEqSrkpXA8VN8C-63">
          <mxGeometry relative="1" as="geometry" />
        </mxCell>
        <mxCell id="9FjvzClEqSrkpXA8VN8C-89" value="next_token.type != RightParenthesis" style="edgeLabel;html=1;align=center;verticalAlign=middle;resizable=0;points=[];" vertex="1" connectable="0" parent="9FjvzClEqSrkpXA8VN8C-88">
          <mxGeometry x="0.1589" y="1" relative="1" as="geometry">
            <mxPoint as="offset" />
          </mxGeometry>
        </mxCell>
        <mxCell id="9FjvzClEqSrkpXA8VN8C-79" value="&lt;div&gt;PopToken&lt;/div&gt;&#39;(&#39;" style="shape=ellipse;html=1;dashed=0;whiteSpace=wrap;aspect=fixed;perimeter=ellipsePerimeter;" vertex="1" parent="9FjvzClEqSrkpXA8VN8C-158">
          <mxGeometry x="820" y="95" width="80" height="80" as="geometry" />
        </mxCell>
        <mxCell id="9FjvzClEqSrkpXA8VN8C-85" style="edgeStyle=orthogonalEdgeStyle;rounded=0;orthogonalLoop=1;jettySize=auto;html=1;entryX=0;entryY=0.5;entryDx=0;entryDy=0;exitX=1;exitY=0.5;exitDx=0;exitDy=0;" edge="1" target="9FjvzClEqSrkpXA8VN8C-87" parent="9FjvzClEqSrkpXA8VN8C-158" source="9FjvzClEqSrkpXA8VN8C-79">
          <mxGeometry relative="1" as="geometry">
            <mxPoint x="980" y="135" as="sourcePoint" />
          </mxGeometry>
        </mxCell>
        <mxCell id="9FjvzClEqSrkpXA8VN8C-86" value="&lt;div&gt;next_token.type == RightParenthesis&lt;/div&gt;" style="edgeLabel;html=1;align=center;verticalAlign=middle;resizable=0;points=[];" vertex="1" connectable="0" parent="9FjvzClEqSrkpXA8VN8C-85">
          <mxGeometry x="0.02" y="2" relative="1" as="geometry">
            <mxPoint x="-7" y="-3" as="offset" />
          </mxGeometry>
        </mxCell>
        <mxCell id="9FjvzClEqSrkpXA8VN8C-87" value="&lt;div&gt;PopToken&lt;/div&gt;&#39;)&#39;" style="shape=ellipse;html=1;dashed=0;whiteSpace=wrap;aspect=fixed;perimeter=ellipsePerimeter;" vertex="1" parent="9FjvzClEqSrkpXA8VN8C-158">
          <mxGeometry x="1100" y="95" width="80" height="80" as="geometry" />
        </mxCell>
        <mxCell id="9FjvzClEqSrkpXA8VN8C-90" style="edgeStyle=orthogonalEdgeStyle;rounded=0;orthogonalLoop=1;jettySize=auto;html=1;entryX=0.5;entryY=0;entryDx=0;entryDy=0;exitX=0.5;exitY=1;exitDx=0;exitDy=0;" edge="1" target="9FjvzClEqSrkpXA8VN8C-92" parent="9FjvzClEqSrkpXA8VN8C-158" source="9FjvzClEqSrkpXA8VN8C-87">
          <mxGeometry relative="1" as="geometry">
            <mxPoint x="900" y="400" as="sourcePoint" />
            <Array as="points">
              <mxPoint x="1140" y="280" />
              <mxPoint x="1140" y="280" />
            </Array>
          </mxGeometry>
        </mxCell>
        <mxCell id="9FjvzClEqSrkpXA8VN8C-91" value="&lt;div&gt;next_token.type == Colon&lt;/div&gt;" style="edgeLabel;html=1;align=center;verticalAlign=middle;resizable=0;points=[];" vertex="1" connectable="0" parent="9FjvzClEqSrkpXA8VN8C-90">
          <mxGeometry x="0.02" y="2" relative="1" as="geometry">
            <mxPoint x="-2" y="-34" as="offset" />
          </mxGeometry>
        </mxCell>
        <mxCell id="9FjvzClEqSrkpXA8VN8C-93" style="edgeStyle=orthogonalEdgeStyle;rounded=1;orthogonalLoop=1;jettySize=auto;html=1;exitX=0;exitY=1;exitDx=0;exitDy=0;entryX=1;entryY=1;entryDx=0;entryDy=0;curved=0;" edge="1" parent="9FjvzClEqSrkpXA8VN8C-158" source="9FjvzClEqSrkpXA8VN8C-87" target="9FjvzClEqSrkpXA8VN8C-63">
          <mxGeometry relative="1" as="geometry">
            <Array as="points">
              <mxPoint x="990" y="163" />
              <mxPoint x="990" y="320" />
            </Array>
          </mxGeometry>
        </mxCell>
        <mxCell id="9FjvzClEqSrkpXA8VN8C-94" value="next_token.type != Colon" style="edgeLabel;html=1;align=center;verticalAlign=middle;resizable=0;points=[];" vertex="1" connectable="0" parent="9FjvzClEqSrkpXA8VN8C-93">
          <mxGeometry x="-0.0985" y="3" relative="1" as="geometry">
            <mxPoint x="-60" y="-3" as="offset" />
          </mxGeometry>
        </mxCell>
        <mxCell id="9FjvzClEqSrkpXA8VN8C-99" value="" style="edgeStyle=orthogonalEdgeStyle;rounded=0;orthogonalLoop=1;jettySize=auto;html=1;" edge="1" parent="9FjvzClEqSrkpXA8VN8C-158" source="9FjvzClEqSrkpXA8VN8C-92" target="9FjvzClEqSrkpXA8VN8C-97">
          <mxGeometry relative="1" as="geometry" />
        </mxCell>
        <mxCell id="9FjvzClEqSrkpXA8VN8C-92" value="&lt;div&gt;PopToken&lt;/div&gt;&#39;:&#39;" style="shape=ellipse;html=1;dashed=0;whiteSpace=wrap;aspect=fixed;perimeter=ellipsePerimeter;" vertex="1" parent="9FjvzClEqSrkpXA8VN8C-158">
          <mxGeometry x="1100" y="250" width="80" height="80" as="geometry" />
        </mxCell>
        <mxCell id="9FjvzClEqSrkpXA8VN8C-100" style="edgeStyle=orthogonalEdgeStyle;rounded=1;orthogonalLoop=1;jettySize=auto;html=1;entryX=0.5;entryY=0;entryDx=0;entryDy=0;curved=0;" edge="1" parent="9FjvzClEqSrkpXA8VN8C-158" source="9FjvzClEqSrkpXA8VN8C-97" target="9FjvzClEqSrkpXA8VN8C-60">
          <mxGeometry relative="1" as="geometry">
            <mxPoint x="890" y="405" as="targetPoint" />
          </mxGeometry>
        </mxCell>
        <mxCell id="9FjvzClEqSrkpXA8VN8C-101" value="nullptr" style="edgeLabel;html=1;align=center;verticalAlign=middle;resizable=0;points=[];" vertex="1" connectable="0" parent="9FjvzClEqSrkpXA8VN8C-100">
          <mxGeometry x="-0.0519" relative="1" as="geometry">
            <mxPoint as="offset" />
          </mxGeometry>
        </mxCell>
        <mxCell id="9FjvzClEqSrkpXA8VN8C-104" style="edgeStyle=orthogonalEdgeStyle;rounded=0;orthogonalLoop=1;jettySize=auto;html=1;entryX=0.497;entryY=0.001;entryDx=0;entryDy=0;entryPerimeter=0;" edge="1" parent="9FjvzClEqSrkpXA8VN8C-158" source="9FjvzClEqSrkpXA8VN8C-97" target="9FjvzClEqSrkpXA8VN8C-106">
          <mxGeometry relative="1" as="geometry">
            <mxPoint x="1140" y="520" as="targetPoint" />
          </mxGeometry>
        </mxCell>
        <mxCell id="9FjvzClEqSrkpXA8VN8C-105" value="next_token.type != LeftBrace" style="edgeLabel;html=1;align=center;verticalAlign=middle;resizable=0;points=[];" vertex="1" connectable="0" parent="9FjvzClEqSrkpXA8VN8C-104">
          <mxGeometry x="-0.1695" y="1" relative="1" as="geometry">
            <mxPoint as="offset" />
          </mxGeometry>
        </mxCell>
        <mxCell id="9FjvzClEqSrkpXA8VN8C-97" value="ParseType()" style="shape=umlFrame;whiteSpace=wrap;html=1;rounded=1;shadow=0;comic=0;labelBackgroundColor=none;strokeWidth=1;fontFamily=Verdana;fontSize=12;align=center;movable=1;resizable=1;rotatable=1;deletable=1;editable=1;locked=0;connectable=1;width=105;height=40;" vertex="1" parent="9FjvzClEqSrkpXA8VN8C-158">
          <mxGeometry x="1070" y="360" width="140" height="60" as="geometry" />
        </mxCell>
        <mxCell id="9FjvzClEqSrkpXA8VN8C-107" style="edgeStyle=orthogonalEdgeStyle;rounded=1;orthogonalLoop=1;jettySize=auto;html=1;entryX=0.5;entryY=1;entryDx=0;entryDy=0;curved=0;exitX=-0.001;exitY=0.266;exitDx=0;exitDy=0;exitPerimeter=0;" edge="1" parent="9FjvzClEqSrkpXA8VN8C-158" source="9FjvzClEqSrkpXA8VN8C-106" target="9FjvzClEqSrkpXA8VN8C-60">
          <mxGeometry relative="1" as="geometry">
            <Array as="points">
              <mxPoint x="985" y="486" />
            </Array>
          </mxGeometry>
        </mxCell>
        <mxCell id="9FjvzClEqSrkpXA8VN8C-108" value="&lt;div&gt;nullptr&lt;/div&gt;" style="edgeLabel;html=1;align=center;verticalAlign=middle;resizable=0;points=[];" vertex="1" connectable="0" parent="9FjvzClEqSrkpXA8VN8C-107">
          <mxGeometry x="-0.221" y="-2" relative="1" as="geometry">
            <mxPoint x="-2" y="2" as="offset" />
          </mxGeometry>
        </mxCell>
        <mxCell id="9FjvzClEqSrkpXA8VN8C-110" value="" style="edgeStyle=orthogonalEdgeStyle;rounded=1;orthogonalLoop=1;jettySize=auto;html=1;exitX=0.005;exitY=0.867;exitDx=0;exitDy=0;exitPerimeter=0;curved=0;" edge="1" parent="9FjvzClEqSrkpXA8VN8C-158" source="9FjvzClEqSrkpXA8VN8C-106" target="9FjvzClEqSrkpXA8VN8C-109">
          <mxGeometry relative="1" as="geometry">
            <mxPoint x="890" y="610" as="sourcePoint" />
            <Array as="points">
              <mxPoint x="635" y="522" />
            </Array>
          </mxGeometry>
        </mxCell>
        <mxCell id="9FjvzClEqSrkpXA8VN8C-112" value="&lt;div&gt;/&lt;/div&gt;&lt;div&gt;return a FunctionDeclaration&lt;br&gt;&lt;/div&gt;" style="edgeLabel;html=1;align=center;verticalAlign=middle;resizable=0;points=[];" vertex="1" connectable="0" parent="9FjvzClEqSrkpXA8VN8C-110">
          <mxGeometry x="0.3662" y="2" relative="1" as="geometry">
            <mxPoint x="107" y="18" as="offset" />
          </mxGeometry>
        </mxCell>
        <mxCell id="9FjvzClEqSrkpXA8VN8C-106" value="ParseBlock()" style="shape=umlFrame;whiteSpace=wrap;html=1;rounded=1;shadow=0;comic=0;labelBackgroundColor=none;strokeWidth=1;fontFamily=Verdana;fontSize=12;align=center;movable=1;resizable=1;rotatable=1;deletable=1;editable=1;locked=0;connectable=1;width=95;height=40;" vertex="1" parent="9FjvzClEqSrkpXA8VN8C-158">
          <mxGeometry x="1070" y="470" width="140" height="60" as="geometry" />
        </mxCell>
        <mxCell id="9FjvzClEqSrkpXA8VN8C-109" value="" style="ellipse;html=1;shape=endState;fillColor=strokeColor;" vertex="1" parent="9FjvzClEqSrkpXA8VN8C-158">
          <mxGeometry x="830" y="470" width="30" height="30" as="geometry" />
        </mxCell>
        <mxCell id="9FjvzClEqSrkpXA8VN8C-159" value="" style="group" vertex="1" connectable="0" parent="1">
          <mxGeometry x="1545" y="690" width="605" height="300" as="geometry" />
        </mxCell>
        <mxCell id="9FjvzClEqSrkpXA8VN8C-141" value="ParseBlock()" style="shape=umlFrame;whiteSpace=wrap;html=1;rounded=1;shadow=0;comic=0;labelBackgroundColor=none;strokeWidth=1;fontFamily=Verdana;fontSize=12;align=center;movable=1;resizable=1;rotatable=1;deletable=1;editable=1;locked=0;connectable=1;width=95;height=40;" vertex="1" parent="9FjvzClEqSrkpXA8VN8C-159">
          <mxGeometry width="605" height="300" as="geometry" />
        </mxCell>
        <mxCell id="9FjvzClEqSrkpXA8VN8C-145" value="" style="edgeStyle=orthogonalEdgeStyle;rounded=0;orthogonalLoop=1;jettySize=auto;html=1;" edge="1" parent="9FjvzClEqSrkpXA8VN8C-159" source="9FjvzClEqSrkpXA8VN8C-142" target="9FjvzClEqSrkpXA8VN8C-144">
          <mxGeometry relative="1" as="geometry" />
        </mxCell>
        <mxCell id="9FjvzClEqSrkpXA8VN8C-146" value="body_location:=next_token.loc" style="edgeLabel;html=1;align=center;verticalAlign=middle;resizable=0;points=[];" vertex="1" connectable="0" parent="9FjvzClEqSrkpXA8VN8C-145">
          <mxGeometry x="-0.0395" y="1" relative="1" as="geometry">
            <mxPoint as="offset" />
          </mxGeometry>
        </mxCell>
        <mxCell id="9FjvzClEqSrkpXA8VN8C-142" value="" style="ellipse;html=1;shape=startState;fillColor=#000000;strokeColor=#ff0000;rounded=1;shadow=0;comic=0;labelBackgroundColor=none;fontFamily=Verdana;fontSize=12;fontColor=#000000;align=center;direction=south;" vertex="1" parent="9FjvzClEqSrkpXA8VN8C-159">
          <mxGeometry x="15" y="95" width="30" height="30" as="geometry" />
        </mxCell>
        <mxCell id="9FjvzClEqSrkpXA8VN8C-143" value="variable: body_location" style="text;html=1;align=center;verticalAlign=middle;resizable=0;points=[];autosize=1;strokeColor=none;fillColor=none;" vertex="1" parent="9FjvzClEqSrkpXA8VN8C-159">
          <mxGeometry x="175" y="30" width="150" height="30" as="geometry" />
        </mxCell>
        <mxCell id="9FjvzClEqSrkpXA8VN8C-148" value="" style="edgeStyle=orthogonalEdgeStyle;rounded=0;orthogonalLoop=1;jettySize=auto;html=1;" edge="1" parent="9FjvzClEqSrkpXA8VN8C-159" source="9FjvzClEqSrkpXA8VN8C-144" target="9FjvzClEqSrkpXA8VN8C-147">
          <mxGeometry relative="1" as="geometry" />
        </mxCell>
        <mxCell id="9FjvzClEqSrkpXA8VN8C-149" value="next_token.type == RightBrace" style="edgeLabel;html=1;align=center;verticalAlign=middle;resizable=0;points=[];" vertex="1" connectable="0" parent="9FjvzClEqSrkpXA8VN8C-148">
          <mxGeometry x="-0.1878" y="-1" relative="1" as="geometry">
            <mxPoint x="13" y="-1" as="offset" />
          </mxGeometry>
        </mxCell>
        <mxCell id="9FjvzClEqSrkpXA8VN8C-153" value="" style="edgeStyle=orthogonalEdgeStyle;rounded=0;orthogonalLoop=1;jettySize=auto;html=1;" edge="1" parent="9FjvzClEqSrkpXA8VN8C-159" source="9FjvzClEqSrkpXA8VN8C-144" target="9FjvzClEqSrkpXA8VN8C-150">
          <mxGeometry relative="1" as="geometry" />
        </mxCell>
        <mxCell id="9FjvzClEqSrkpXA8VN8C-154" value="next_token.type != RightBrace" style="edgeLabel;html=1;align=center;verticalAlign=middle;resizable=0;points=[];" vertex="1" connectable="0" parent="9FjvzClEqSrkpXA8VN8C-153">
          <mxGeometry x="-0.1321" y="1" relative="1" as="geometry">
            <mxPoint as="offset" />
          </mxGeometry>
        </mxCell>
        <mxCell id="9FjvzClEqSrkpXA8VN8C-144" value="stoping state" style="shape=ellipse;html=1;dashed=0;whiteSpace=wrap;aspect=fixed;perimeter=ellipsePerimeter;" vertex="1" parent="9FjvzClEqSrkpXA8VN8C-159">
          <mxGeometry x="235" y="70" width="80" height="80" as="geometry" />
        </mxCell>
        <mxCell id="9FjvzClEqSrkpXA8VN8C-156" value="" style="edgeStyle=orthogonalEdgeStyle;rounded=0;orthogonalLoop=1;jettySize=auto;html=1;" edge="1" parent="9FjvzClEqSrkpXA8VN8C-159" source="9FjvzClEqSrkpXA8VN8C-147" target="9FjvzClEqSrkpXA8VN8C-155">
          <mxGeometry relative="1" as="geometry" />
        </mxCell>
        <mxCell id="9FjvzClEqSrkpXA8VN8C-157" value="return body location" style="edgeLabel;html=1;align=center;verticalAlign=middle;resizable=0;points=[];" vertex="1" connectable="0" parent="9FjvzClEqSrkpXA8VN8C-156">
          <mxGeometry x="0.0484" y="-1" relative="1" as="geometry">
            <mxPoint as="offset" />
          </mxGeometry>
        </mxCell>
        <mxCell id="9FjvzClEqSrkpXA8VN8C-147" value="&lt;div&gt;PopToken&lt;/div&gt;&#39;}&#39;" style="shape=ellipse;html=1;dashed=0;whiteSpace=wrap;aspect=fixed;perimeter=ellipsePerimeter;" vertex="1" parent="9FjvzClEqSrkpXA8VN8C-159">
          <mxGeometry x="505" y="70" width="80" height="80" as="geometry" />
        </mxCell>
        <mxCell id="9FjvzClEqSrkpXA8VN8C-152" value="" style="edgeStyle=orthogonalEdgeStyle;rounded=0;orthogonalLoop=1;jettySize=auto;html=1;" edge="1" parent="9FjvzClEqSrkpXA8VN8C-159" source="9FjvzClEqSrkpXA8VN8C-150" target="9FjvzClEqSrkpXA8VN8C-151">
          <mxGeometry relative="1" as="geometry" />
        </mxCell>
        <mxCell id="9FjvzClEqSrkpXA8VN8C-150" value="report" style="shape=ellipse;html=1;dashed=0;whiteSpace=wrap;aspect=fixed;perimeter=ellipsePerimeter;" vertex="1" parent="9FjvzClEqSrkpXA8VN8C-159">
          <mxGeometry x="235" y="210" width="80" height="80" as="geometry" />
        </mxCell>
        <mxCell id="9FjvzClEqSrkpXA8VN8C-151" value="" style="ellipse;html=1;shape=endState;fillColor=#000000;strokeColor=#ff0000;" vertex="1" parent="9FjvzClEqSrkpXA8VN8C-159">
          <mxGeometry x="125" y="235" width="30" height="30" as="geometry" />
        </mxCell>
        <mxCell id="9FjvzClEqSrkpXA8VN8C-155" value="" style="ellipse;html=1;shape=endState;fillColor=strokeColor;" vertex="1" parent="9FjvzClEqSrkpXA8VN8C-159">
          <mxGeometry x="530" y="235" width="30" height="30" as="geometry" />
        </mxCell>
        <mxCell id="9FjvzClEqSrkpXA8VN8C-160" value="" style="group" vertex="1" connectable="0" parent="1">
          <mxGeometry x="60" y="690" width="750" height="270" as="geometry" />
        </mxCell>
        <mxCell id="9FjvzClEqSrkpXA8VN8C-118" value="ParseType()" style="shape=umlFrame;whiteSpace=wrap;html=1;rounded=1;shadow=0;comic=0;labelBackgroundColor=none;strokeWidth=1;fontFamily=Verdana;fontSize=12;align=center;movable=1;resizable=1;rotatable=1;deletable=1;editable=1;locked=0;connectable=1;width=105;height=40;" vertex="1" parent="9FjvzClEqSrkpXA8VN8C-160">
          <mxGeometry width="750" height="270" as="geometry" />
        </mxCell>
        <mxCell id="9FjvzClEqSrkpXA8VN8C-121" value="" style="edgeStyle=orthogonalEdgeStyle;rounded=0;orthogonalLoop=1;jettySize=auto;html=1;" edge="1" parent="9FjvzClEqSrkpXA8VN8C-160" source="9FjvzClEqSrkpXA8VN8C-119" target="9FjvzClEqSrkpXA8VN8C-120">
          <mxGeometry relative="1" as="geometry" />
        </mxCell>
        <mxCell id="9FjvzClEqSrkpXA8VN8C-124" value="token_type:=next_token.type" style="edgeLabel;html=1;align=center;verticalAlign=middle;resizable=0;points=[];" vertex="1" connectable="0" parent="9FjvzClEqSrkpXA8VN8C-121">
          <mxGeometry x="-0.1487" y="1" relative="1" as="geometry">
            <mxPoint as="offset" />
          </mxGeometry>
        </mxCell>
        <mxCell id="9FjvzClEqSrkpXA8VN8C-119" value="" style="ellipse;html=1;shape=startState;fillColor=#000000;strokeColor=#ff0000;rounded=1;shadow=0;comic=0;labelBackgroundColor=none;fontFamily=Verdana;fontSize=12;fontColor=#000000;align=center;direction=south;" vertex="1" parent="9FjvzClEqSrkpXA8VN8C-160">
          <mxGeometry x="10" y="65" width="30" height="30" as="geometry" />
        </mxCell>
        <mxCell id="9FjvzClEqSrkpXA8VN8C-126" style="edgeStyle=orthogonalEdgeStyle;rounded=0;orthogonalLoop=1;jettySize=auto;html=1;entryX=0;entryY=0.5;entryDx=0;entryDy=0;" edge="1" parent="9FjvzClEqSrkpXA8VN8C-160" source="9FjvzClEqSrkpXA8VN8C-120" target="9FjvzClEqSrkpXA8VN8C-125">
          <mxGeometry relative="1" as="geometry" />
        </mxCell>
        <mxCell id="9FjvzClEqSrkpXA8VN8C-127" value="token_type==Keyword_Void" style="edgeLabel;html=1;align=center;verticalAlign=middle;resizable=0;points=[];" vertex="1" connectable="0" parent="9FjvzClEqSrkpXA8VN8C-126">
          <mxGeometry x="-0.1634" y="1" relative="1" as="geometry">
            <mxPoint as="offset" />
          </mxGeometry>
        </mxCell>
        <mxCell id="9FjvzClEqSrkpXA8VN8C-129" style="edgeStyle=orthogonalEdgeStyle;rounded=1;orthogonalLoop=1;jettySize=auto;html=1;entryX=0;entryY=0.5;entryDx=0;entryDy=0;exitX=0.5;exitY=1;exitDx=0;exitDy=0;curved=0;" edge="1" parent="9FjvzClEqSrkpXA8VN8C-160" source="9FjvzClEqSrkpXA8VN8C-120" target="9FjvzClEqSrkpXA8VN8C-128">
          <mxGeometry relative="1" as="geometry" />
        </mxCell>
        <mxCell id="9FjvzClEqSrkpXA8VN8C-130" value="token_type==Identifier" style="edgeLabel;html=1;align=center;verticalAlign=middle;resizable=0;points=[];" vertex="1" connectable="0" parent="9FjvzClEqSrkpXA8VN8C-129">
          <mxGeometry x="-0.0889" relative="1" as="geometry">
            <mxPoint x="60" as="offset" />
          </mxGeometry>
        </mxCell>
        <mxCell id="9FjvzClEqSrkpXA8VN8C-132" style="edgeStyle=orthogonalEdgeStyle;rounded=1;orthogonalLoop=1;jettySize=auto;html=1;exitX=1;exitY=1;exitDx=0;exitDy=0;entryX=0.5;entryY=0;entryDx=0;entryDy=0;curved=0;" edge="1" parent="9FjvzClEqSrkpXA8VN8C-160" source="9FjvzClEqSrkpXA8VN8C-120" target="9FjvzClEqSrkpXA8VN8C-131">
          <mxGeometry relative="1" as="geometry" />
        </mxCell>
        <mxCell id="9FjvzClEqSrkpXA8VN8C-133" value="Else" style="edgeLabel;html=1;align=center;verticalAlign=middle;resizable=0;points=[];" vertex="1" connectable="0" parent="9FjvzClEqSrkpXA8VN8C-132">
          <mxGeometry x="0.0193" relative="1" as="geometry">
            <mxPoint as="offset" />
          </mxGeometry>
        </mxCell>
        <mxCell id="9FjvzClEqSrkpXA8VN8C-120" value="stoping state" style="shape=ellipse;html=1;dashed=0;whiteSpace=wrap;aspect=fixed;perimeter=ellipsePerimeter;" vertex="1" parent="9FjvzClEqSrkpXA8VN8C-160">
          <mxGeometry x="250" y="40" width="80" height="80" as="geometry" />
        </mxCell>
        <mxCell id="9FjvzClEqSrkpXA8VN8C-122" value="variable: token_type" style="text;html=1;align=center;verticalAlign=middle;resizable=0;points=[];autosize=1;strokeColor=none;fillColor=none;" vertex="1" parent="9FjvzClEqSrkpXA8VN8C-160">
          <mxGeometry x="110" y="5" width="130" height="30" as="geometry" />
        </mxCell>
        <mxCell id="9FjvzClEqSrkpXA8VN8C-137" style="edgeStyle=orthogonalEdgeStyle;rounded=1;orthogonalLoop=1;jettySize=auto;html=1;entryX=0.5;entryY=0;entryDx=0;entryDy=0;curved=0;" edge="1" parent="9FjvzClEqSrkpXA8VN8C-160" source="9FjvzClEqSrkpXA8VN8C-125" target="9FjvzClEqSrkpXA8VN8C-134">
          <mxGeometry relative="1" as="geometry" />
        </mxCell>
        <mxCell id="9FjvzClEqSrkpXA8VN8C-139" value="return void type" style="edgeLabel;html=1;align=center;verticalAlign=middle;resizable=0;points=[];" vertex="1" connectable="0" parent="9FjvzClEqSrkpXA8VN8C-137">
          <mxGeometry x="-0.26" relative="1" as="geometry">
            <mxPoint as="offset" />
          </mxGeometry>
        </mxCell>
        <mxCell id="9FjvzClEqSrkpXA8VN8C-125" value="void type" style="shape=ellipse;html=1;dashed=0;whiteSpace=wrap;aspect=fixed;perimeter=ellipsePerimeter;" vertex="1" parent="9FjvzClEqSrkpXA8VN8C-160">
          <mxGeometry x="510" y="40" width="80" height="80" as="geometry" />
        </mxCell>
        <mxCell id="9FjvzClEqSrkpXA8VN8C-138" style="edgeStyle=orthogonalEdgeStyle;rounded=1;orthogonalLoop=1;jettySize=auto;html=1;entryX=0.5;entryY=1;entryDx=0;entryDy=0;curved=0;" edge="1" parent="9FjvzClEqSrkpXA8VN8C-160" source="9FjvzClEqSrkpXA8VN8C-128" target="9FjvzClEqSrkpXA8VN8C-134">
          <mxGeometry relative="1" as="geometry" />
        </mxCell>
        <mxCell id="9FjvzClEqSrkpXA8VN8C-140" value="return custom type" style="edgeLabel;html=1;align=center;verticalAlign=middle;resizable=0;points=[];" vertex="1" connectable="0" parent="9FjvzClEqSrkpXA8VN8C-138">
          <mxGeometry x="-0.2827" y="-1" relative="1" as="geometry">
            <mxPoint as="offset" />
          </mxGeometry>
        </mxCell>
        <mxCell id="9FjvzClEqSrkpXA8VN8C-128" value="Custom type" style="shape=ellipse;html=1;dashed=0;whiteSpace=wrap;aspect=fixed;perimeter=ellipsePerimeter;" vertex="1" parent="9FjvzClEqSrkpXA8VN8C-160">
          <mxGeometry x="510" y="140" width="80" height="80" as="geometry" />
        </mxCell>
        <mxCell id="9FjvzClEqSrkpXA8VN8C-136" value="" style="edgeStyle=orthogonalEdgeStyle;rounded=0;orthogonalLoop=1;jettySize=auto;html=1;" edge="1" parent="9FjvzClEqSrkpXA8VN8C-160" source="9FjvzClEqSrkpXA8VN8C-131" target="9FjvzClEqSrkpXA8VN8C-135">
          <mxGeometry relative="1" as="geometry" />
        </mxCell>
        <mxCell id="9FjvzClEqSrkpXA8VN8C-131" value="report" style="shape=ellipse;html=1;dashed=0;whiteSpace=wrap;aspect=fixed;perimeter=ellipsePerimeter;" vertex="1" parent="9FjvzClEqSrkpXA8VN8C-160">
          <mxGeometry x="140" y="175" width="80" height="80" as="geometry" />
        </mxCell>
        <mxCell id="9FjvzClEqSrkpXA8VN8C-134" value="" style="ellipse;html=1;shape=endState;fillColor=strokeColor;" vertex="1" parent="9FjvzClEqSrkpXA8VN8C-160">
          <mxGeometry x="710" y="120" width="30" height="30" as="geometry" />
        </mxCell>
        <mxCell id="9FjvzClEqSrkpXA8VN8C-135" value="" style="ellipse;html=1;shape=endState;fillColor=#000000;strokeColor=#ff0000;" vertex="1" parent="9FjvzClEqSrkpXA8VN8C-160">
          <mxGeometry x="80" y="200" width="30" height="30" as="geometry" />
        </mxCell>
        <mxCell id="9FjvzClEqSrkpXA8VN8C-161" value="" style="group" vertex="1" connectable="0" parent="1">
          <mxGeometry x="970" y="690" width="400" height="210" as="geometry" />
        </mxCell>
        <mxCell id="9FjvzClEqSrkpXA8VN8C-33" value="&lt;div&gt;SyncOn()&lt;/div&gt;" style="shape=umlFrame;whiteSpace=wrap;html=1;rounded=1;shadow=0;comic=0;labelBackgroundColor=none;strokeWidth=1;fontFamily=Verdana;fontSize=12;align=center;movable=1;resizable=1;rotatable=1;deletable=1;editable=1;locked=0;connectable=1;width=90;height=40;" vertex="1" parent="9FjvzClEqSrkpXA8VN8C-161">
          <mxGeometry width="400" height="210" as="geometry" />
        </mxCell>
        <mxCell id="9FjvzClEqSrkpXA8VN8C-39" style="edgeStyle=orthogonalEdgeStyle;rounded=0;orthogonalLoop=1;jettySize=auto;html=1;entryX=0;entryY=0.5;entryDx=0;entryDy=0;" edge="1" parent="9FjvzClEqSrkpXA8VN8C-161" source="9FjvzClEqSrkpXA8VN8C-35" target="9FjvzClEqSrkpXA8VN8C-38">
          <mxGeometry relative="1" as="geometry" />
        </mxCell>
        <mxCell id="9FjvzClEqSrkpXA8VN8C-40" value="incomplete_AST:=true" style="edgeLabel;html=1;align=center;verticalAlign=middle;resizable=0;points=[];" vertex="1" connectable="0" parent="9FjvzClEqSrkpXA8VN8C-39">
          <mxGeometry x="-0.3526" y="-2" relative="1" as="geometry">
            <mxPoint x="15" y="-2" as="offset" />
          </mxGeometry>
        </mxCell>
        <mxCell id="9FjvzClEqSrkpXA8VN8C-35" value="" style="ellipse;html=1;shape=startState;fillColor=#000000;strokeColor=#ff0000;rounded=1;shadow=0;comic=0;labelBackgroundColor=none;fontFamily=Verdana;fontSize=12;fontColor=#000000;align=center;direction=south;" vertex="1" parent="9FjvzClEqSrkpXA8VN8C-161">
          <mxGeometry x="10" y="90" width="30" height="30" as="geometry" />
        </mxCell>
        <mxCell id="9FjvzClEqSrkpXA8VN8C-47" value="" style="edgeStyle=orthogonalEdgeStyle;rounded=0;orthogonalLoop=1;jettySize=auto;html=1;" edge="1" parent="9FjvzClEqSrkpXA8VN8C-161" source="9FjvzClEqSrkpXA8VN8C-38" target="9FjvzClEqSrkpXA8VN8C-46">
          <mxGeometry relative="1" as="geometry" />
        </mxCell>
        <mxCell id="9FjvzClEqSrkpXA8VN8C-38" value="keep_skipping" style="shape=ellipse;html=1;dashed=0;whiteSpace=wrap;aspect=fixed;perimeter=ellipsePerimeter;" vertex="1" parent="9FjvzClEqSrkpXA8VN8C-161">
          <mxGeometry x="180" y="65" width="80" height="80" as="geometry" />
        </mxCell>
        <mxCell id="9FjvzClEqSrkpXA8VN8C-43" style="edgeStyle=orthogonalEdgeStyle;rounded=0;orthogonalLoop=1;jettySize=auto;html=1;exitX=0.5;exitY=0;exitDx=0;exitDy=0;entryX=1;entryY=0.5;entryDx=0;entryDy=0;curved=1;" edge="1" parent="9FjvzClEqSrkpXA8VN8C-161" source="9FjvzClEqSrkpXA8VN8C-38" target="9FjvzClEqSrkpXA8VN8C-38">
          <mxGeometry relative="1" as="geometry" />
        </mxCell>
        <mxCell id="9FjvzClEqSrkpXA8VN8C-45" value="next_token.type != type AND next_token.type != _EOF" style="edgeLabel;html=1;align=center;verticalAlign=middle;resizable=0;points=[];" vertex="1" connectable="0" parent="9FjvzClEqSrkpXA8VN8C-43">
          <mxGeometry x="-0.2583" y="-5" relative="1" as="geometry">
            <mxPoint x="1" y="-10" as="offset" />
          </mxGeometry>
        </mxCell>
        <mxCell id="9FjvzClEqSrkpXA8VN8C-46" value="" style="ellipse;html=1;shape=endState;fillColor=strokeColor;" vertex="1" parent="9FjvzClEqSrkpXA8VN8C-161">
          <mxGeometry x="205" y="170" width="30" height="30" as="geometry" />
        </mxCell>
        <mxCell id="9FjvzClEqSrkpXA8VN8C-48" value="&lt;div&gt;input: type:{_EOF, Keyword_Function, ...}&lt;/div&gt;" style="text;html=1;align=center;verticalAlign=middle;resizable=0;points=[];autosize=1;strokeColor=none;fillColor=none;" vertex="1" parent="9FjvzClEqSrkpXA8VN8C-161">
          <mxGeometry x="90" width="240" height="30" as="geometry" />
        </mxCell>
        <mxCell id="9FjvzClEqSrkpXA8VN8C-162" value="" style="group" vertex="1" connectable="0" parent="1">
          <mxGeometry x="60" y="60" width="790" height="550" as="geometry" />
        </mxCell>
        <mxCell id="9FjvzClEqSrkpXA8VN8C-5" style="edgeStyle=orthogonalEdgeStyle;rounded=0;orthogonalLoop=1;jettySize=auto;html=1;entryX=0.5;entryY=0;entryDx=0;entryDy=0;" edge="1" parent="9FjvzClEqSrkpXA8VN8C-162" source="382b91b5511bd0f7-1" target="9FjvzClEqSrkpXA8VN8C-1">
          <mxGeometry relative="1" as="geometry" />
        </mxCell>
        <mxCell id="9FjvzClEqSrkpXA8VN8C-6" value="Keyword_Function" style="edgeLabel;html=1;align=center;verticalAlign=middle;resizable=0;points=[];" vertex="1" connectable="0" parent="9FjvzClEqSrkpXA8VN8C-5">
          <mxGeometry x="-0.0775" y="-2" relative="1" as="geometry">
            <mxPoint x="2" as="offset" />
          </mxGeometry>
        </mxCell>
        <mxCell id="382b91b5511bd0f7-1" value="" style="ellipse;html=1;shape=startState;fillColor=#000000;strokeColor=#ff0000;rounded=1;shadow=0;comic=0;labelBackgroundColor=none;fontFamily=Verdana;fontSize=12;fontColor=#000000;align=center;direction=south;" parent="9FjvzClEqSrkpXA8VN8C-162" vertex="1">
          <mxGeometry x="400" y="115" width="30" height="30" as="geometry" />
        </mxCell>
        <mxCell id="2a3bc250acf0617d-9" style="edgeStyle=orthogonalEdgeStyle;html=1;labelBackgroundColor=none;endArrow=open;endSize=8;strokeColor=#000000;fontFamily=Verdana;fontSize=12;align=left;entryX=0;entryY=0.5;entryDx=0;entryDy=0;exitX=0;exitY=0.5;exitDx=0;exitDy=0;" parent="9FjvzClEqSrkpXA8VN8C-162" source="382b91b5511bd0f7-1" target="9FjvzClEqSrkpXA8VN8C-3" edge="1">
          <mxGeometry relative="1" as="geometry">
            <mxPoint x="510" y="130" as="targetPoint" />
          </mxGeometry>
        </mxCell>
        <mxCell id="9FjvzClEqSrkpXA8VN8C-4" value="_EOF" style="edgeLabel;html=1;align=center;verticalAlign=middle;resizable=0;points=[];" vertex="1" connectable="0" parent="2a3bc250acf0617d-9">
          <mxGeometry x="0.0776" y="3" relative="1" as="geometry">
            <mxPoint x="-25" y="3" as="offset" />
          </mxGeometry>
        </mxCell>
        <mxCell id="9FjvzClEqSrkpXA8VN8C-18" value="" style="edgeStyle=orthogonalEdgeStyle;rounded=0;orthogonalLoop=1;jettySize=auto;html=1;" edge="1" parent="9FjvzClEqSrkpXA8VN8C-162" source="9FjvzClEqSrkpXA8VN8C-1">
          <mxGeometry relative="1" as="geometry">
            <mxPoint x="415" y="420" as="targetPoint" />
          </mxGeometry>
        </mxCell>
        <mxCell id="9FjvzClEqSrkpXA8VN8C-1" value="function" style="shape=ellipse;html=1;dashed=0;whiteSpace=wrap;aspect=fixed;perimeter=ellipsePerimeter;" vertex="1" parent="9FjvzClEqSrkpXA8VN8C-162">
          <mxGeometry x="375" y="265" width="80" height="80" as="geometry" />
        </mxCell>
        <mxCell id="9FjvzClEqSrkpXA8VN8C-3" value="&lt;div&gt;Return&lt;/div&gt;" style="ellipse;shape=doubleEllipse;html=1;dashed=0;whiteSpace=wrap;aspect=fixed;" vertex="1" parent="9FjvzClEqSrkpXA8VN8C-162">
          <mxGeometry x="480" y="20" width="80" height="80" as="geometry" />
        </mxCell>
        <mxCell id="9FjvzClEqSrkpXA8VN8C-24" value="" style="edgeStyle=orthogonalEdgeStyle;rounded=0;orthogonalLoop=1;jettySize=auto;html=1;" edge="1" parent="9FjvzClEqSrkpXA8VN8C-162" source="9FjvzClEqSrkpXA8VN8C-9" target="9FjvzClEqSrkpXA8VN8C-23">
          <mxGeometry relative="1" as="geometry" />
        </mxCell>
        <mxCell id="9FjvzClEqSrkpXA8VN8C-29" value="/" style="edgeLabel;html=1;align=center;verticalAlign=middle;resizable=0;points=[];" vertex="1" connectable="0" parent="9FjvzClEqSrkpXA8VN8C-24">
          <mxGeometry x="0.1378" relative="1" as="geometry">
            <mxPoint as="offset" />
          </mxGeometry>
        </mxCell>
        <mxCell id="9FjvzClEqSrkpXA8VN8C-9" value="ParseFunctionDeclaration()" style="shape=umlFrame;whiteSpace=wrap;html=1;rounded=1;shadow=0;comic=0;labelBackgroundColor=none;strokeWidth=1;fontFamily=Verdana;fontSize=12;align=center;movable=1;resizable=1;rotatable=1;deletable=1;editable=1;locked=0;connectable=1;width=200;height=40;" vertex="1" parent="9FjvzClEqSrkpXA8VN8C-162">
          <mxGeometry x="310" y="440" width="210" height="70" as="geometry" />
        </mxCell>
        <mxCell id="9FjvzClEqSrkpXA8VN8C-16" style="edgeStyle=orthogonalEdgeStyle;rounded=1;orthogonalLoop=1;jettySize=auto;html=1;entryX=0.5;entryY=0;entryDx=0;entryDy=0;curved=0;" edge="1" parent="9FjvzClEqSrkpXA8VN8C-162" source="9FjvzClEqSrkpXA8VN8C-11" target="382b91b5511bd0f7-1">
          <mxGeometry relative="1" as="geometry">
            <Array as="points">
              <mxPoint x="750" y="475" />
              <mxPoint x="750" y="130" />
            </Array>
          </mxGeometry>
        </mxCell>
        <mxCell id="9FjvzClEqSrkpXA8VN8C-11" value="&lt;div&gt;SyncOn()&lt;/div&gt;" style="shape=umlFrame;whiteSpace=wrap;html=1;rounded=1;shadow=0;comic=0;labelBackgroundColor=none;strokeWidth=1;fontFamily=Verdana;fontSize=12;align=center;movable=1;resizable=1;rotatable=1;deletable=1;editable=1;locked=0;connectable=1;width=100;height=30;" vertex="1" parent="9FjvzClEqSrkpXA8VN8C-162">
          <mxGeometry x="610" y="440" width="110" height="70" as="geometry" />
        </mxCell>
        <mxCell id="9FjvzClEqSrkpXA8VN8C-12" value="invalid" style="ellipse;whiteSpace=wrap;html=1;aspect=fixed;" vertex="1" parent="9FjvzClEqSrkpXA8VN8C-162">
          <mxGeometry x="620" y="265" width="80" height="80" as="geometry" />
        </mxCell>
        <mxCell id="9FjvzClEqSrkpXA8VN8C-13" style="edgeStyle=orthogonalEdgeStyle;rounded=1;orthogonalLoop=1;jettySize=auto;html=1;exitX=1;exitY=0;exitDx=0;exitDy=0;entryX=0.5;entryY=0;entryDx=0;entryDy=0;curved=0;" edge="1" parent="9FjvzClEqSrkpXA8VN8C-162" source="382b91b5511bd0f7-1" target="9FjvzClEqSrkpXA8VN8C-12">
          <mxGeometry relative="1" as="geometry">
            <Array as="points">
              <mxPoint x="426" y="180" />
              <mxPoint x="660" y="180" />
            </Array>
          </mxGeometry>
        </mxCell>
        <mxCell id="9FjvzClEqSrkpXA8VN8C-14" value="&lt;div&gt;Not Keyword_Function&lt;/div&gt;" style="edgeLabel;html=1;align=center;verticalAlign=middle;resizable=0;points=[];" vertex="1" connectable="0" parent="9FjvzClEqSrkpXA8VN8C-13">
          <mxGeometry x="0.0652" y="4" relative="1" as="geometry">
            <mxPoint as="offset" />
          </mxGeometry>
        </mxCell>
        <mxCell id="9FjvzClEqSrkpXA8VN8C-15" style="edgeStyle=orthogonalEdgeStyle;rounded=0;orthogonalLoop=1;jettySize=auto;html=1;exitX=0.5;exitY=1;exitDx=0;exitDy=0;entryX=0.458;entryY=-0.02;entryDx=0;entryDy=0;entryPerimeter=0;" edge="1" parent="9FjvzClEqSrkpXA8VN8C-162" source="9FjvzClEqSrkpXA8VN8C-12" target="9FjvzClEqSrkpXA8VN8C-11">
          <mxGeometry relative="1" as="geometry">
            <mxPoint x="609" y="439" as="targetPoint" />
          </mxGeometry>
        </mxCell>
        <mxCell id="9FjvzClEqSrkpXA8VN8C-17" value="Keyword_Function" style="edgeLabel;html=1;align=center;verticalAlign=middle;resizable=0;points=[];" vertex="1" connectable="0" parent="9FjvzClEqSrkpXA8VN8C-15">
          <mxGeometry x="0.2302" y="3" relative="1" as="geometry">
            <mxPoint as="offset" />
          </mxGeometry>
        </mxCell>
        <mxCell id="9FjvzClEqSrkpXA8VN8C-21" value="" style="endArrow=classic;html=1;rounded=0;entryX=-0.005;entryY=0.491;entryDx=0;entryDy=0;entryPerimeter=0;exitX=1.003;exitY=0.479;exitDx=0;exitDy=0;exitPerimeter=0;" edge="1" parent="9FjvzClEqSrkpXA8VN8C-162" source="9FjvzClEqSrkpXA8VN8C-9" target="9FjvzClEqSrkpXA8VN8C-11">
          <mxGeometry width="50" height="50" relative="1" as="geometry">
            <mxPoint x="690" y="420" as="sourcePoint" />
            <mxPoint x="740" y="370" as="targetPoint" />
          </mxGeometry>
        </mxCell>
        <mxCell id="9FjvzClEqSrkpXA8VN8C-22" value="nullptr" style="edgeLabel;html=1;align=center;verticalAlign=middle;resizable=0;points=[];" vertex="1" connectable="0" parent="9FjvzClEqSrkpXA8VN8C-21">
          <mxGeometry x="-0.0745" y="3" relative="1" as="geometry">
            <mxPoint as="offset" />
          </mxGeometry>
        </mxCell>
        <mxCell id="9FjvzClEqSrkpXA8VN8C-114" style="edgeStyle=orthogonalEdgeStyle;rounded=1;orthogonalLoop=1;jettySize=auto;html=1;entryX=0.5;entryY=1;entryDx=0;entryDy=0;curved=0;" edge="1" parent="9FjvzClEqSrkpXA8VN8C-162" source="9FjvzClEqSrkpXA8VN8C-23" target="382b91b5511bd0f7-1">
          <mxGeometry relative="1" as="geometry">
            <Array as="points">
              <mxPoint x="140" y="130" />
            </Array>
          </mxGeometry>
        </mxCell>
        <mxCell id="9FjvzClEqSrkpXA8VN8C-23" value="AppendFunctionDeclaration" style="shape=umlFrame;whiteSpace=wrap;html=1;rounded=1;shadow=0;comic=0;labelBackgroundColor=none;strokeWidth=1;fontFamily=Verdana;fontSize=12;align=center;movable=1;resizable=1;rotatable=1;deletable=1;editable=1;locked=0;connectable=1;width=200;height=40;" vertex="1" parent="9FjvzClEqSrkpXA8VN8C-162">
          <mxGeometry x="40" y="440" width="210" height="70" as="geometry" />
        </mxCell>
        <mxCell id="9FjvzClEqSrkpXA8VN8C-32" value="&lt;div&gt;ParseSourceFile()&lt;/div&gt;" style="shape=umlFrame;whiteSpace=wrap;html=1;rounded=1;shadow=0;comic=0;labelBackgroundColor=none;strokeWidth=1;fontFamily=Verdana;fontSize=12;align=center;movable=1;resizable=1;rotatable=1;deletable=1;editable=1;locked=0;connectable=1;width=200;height=40;" vertex="1" parent="9FjvzClEqSrkpXA8VN8C-162">
          <mxGeometry width="790" height="550" as="geometry" />
        </mxCell>
      </root>
    </mxGraphModel>
  </diagram>
</mxfile>
